<svg width="10" height="10" fill="none" xmlns="http://www.w3.org/2000/svg"><g clip-path="url(#clip0)" fill="#231F20"><path d="M9.86215 2.5217c-.06937-.08179-.16874-.12854-.27288-.12854H7.65774V3.4188c0 .47128-.40415.8547-.9009.8547-.49676 0-.90091-.38342-.90091-.8547V2.39316h-1.8018V3.4188c0 .47128-.40414.8547-.9009.8547-.49675 0-.9009-.38342-.9009-.8547V2.39316H.32089c-.104234 0-.203604.04675-.2729731.12854-.0694594.0818-.1023423.19086-.0904504.29975L.605665 8.78461c.012072.67231.536125 1.21538 1.178645 1.21538h6.34153c.64244 0 1.16649-.54307 1.17865-1.21547l.6482-5.96316c.0118-.1088-.02108-.21786-.09054-.29966z"/><path d="M3.15333 3.76068c.19874 0 .36036-.15333.36036-.34188V1.53846c0-.52795.56117-.854699 1.08108-.854699h.9009c.54721 0 .9009.335469.9009.854699V3.4188c0 .18855.16172.34188.36036.34188.19865 0 .36036-.15333.36036-.34188V1.53846C7.11729.647009 6.43531 0 5.49567 0h-.9009c-.99351 0-1.8018.690171-1.8018 1.53846V3.4188c0 .18855.16162.34188.36036.34188z"/></g><defs><clipPath id="clip0"><path fill="#fff" d="M0 0h10v10H0z"/></clipPath></defs></svg>