<svg width="512" height="512" fill="none" xmlns="http://www.w3.org/2000/svg"><path fill="#F7E296" d="M0 0h512v512H0z"/><path fill-rule="evenodd" clip-rule="evenodd" d="M128 107.831v296.338h118.631c19.123.471 38.134-3.069 55.823-10.394s33.669-18.274 46.922-32.152c13.585-13.911 24.245-30.433 31.342-48.581 7.098-18.147 10.487-37.548 9.967-57.042.52-19.495-2.869-38.895-9.967-57.042-7.097-18.148-17.757-34.67-31.342-48.582-13.254-13.875-29.234-24.824-46.923-32.149-17.689-7.325-36.699-10.865-55.822-10.396H128zm67.368 232.38V171.789h51.272c10.541-.422 21.055 2.583 30.867 6.483 9.813 3.9 18.708 9.818 26.116 17.375 7.438 8.093 13.198 17.596 16.945 27.954 3.746 10.358 6.697 21.363 6.169 32.372.529 11.01-2.422 22.015-6.169 32.373-3.746 10.358-9.507 19.861-16.945 27.953-7.407 7.559-16.302 13.478-26.114 17.379-9.813 3.9-20.327 6.957-30.869 6.533h-51.272z" fill="#000"/></svg>